<svg xmlns="http://www.w3.org/2000/svg" width="48" height="48" viewBox="0 0 24 24" fill="none" stroke="currentColor" stroke-width="1.5" stroke-linecap="round" stroke-linejoin="round">
  <path d="M5.77 16.8c.37 0 .68-.22.94-.67 2.39-4.23 3.63-6.44 3.73-6.61L8.07 5.38C7.82 4.96 7.53 4.73 7.11 4.73H3.64c-.22 0-.38.07-.46.22-.11.14-.1.32.01.54l2.34 4.05s0 .01 0 .01L1.85 16.02c-.14.28-.14.52 0 .52.1.17.25.25.45.25z"/>
  <path d="M21.69 0h-3.5c-.38 0-.69.22-.93.65C12.3 9.45 9.73 14 9.56 14.31l4.92 9.02c.17.31.44.67.96.67h3.47c.15 0 .26-.04.33-.13.1-.16.09-.34-.01-.54l-4.88-8.88v-.01L22.16.75c.11-.2.11-.38 0-.54C22.07.07 21.9 0 21.69 0"/>
</svg>
